<!DOCTYPE svg PUBLIC "-//W3C//DTD SVG 1.1//EN" "http://www.w3.org/Graphics/SVG/1.1/DTD/svg11.dtd">
<!-- Uploaded to: SVG Repo, www.svgrepo.com, Transformed by: SVG Repo Mixer Tools -->
<svg version="1.1" id="Layer_1" xmlns="http://www.w3.org/2000/svg" xmlns:xlink="http://www.w3.org/1999/xlink" viewBox="0 0 511.999 511.999" xml:space="preserve" width="800px" height="800px" fill="#000000">
<g id="SVGRepo_bgCarrier" stroke-width="0"/>
<g id="SVGRepo_tracerCarrier" stroke-linecap="round" stroke-linejoin="round"/>
<g id="SVGRepo_iconCarrier"> <polygon style="fill:#4D4D4D;" points="503.828,206.98 503.828,479.32 471.147,454.417 427.572,343.15 471.147,231.883 "/> <polygon style="fill:#737373;" points="471.147,231.883 471.147,454.417 389.445,392.171 367.657,343.15 389.445,294.129 "/> <rect x="324.085" y="283.233" style="fill:#B9B9B9;" width="65.362" height="119.83"/> <path style="fill:#737373;" d="M324.083,206.98h-32.681v272.34h32.681c17.974,0,32.681-14.706,32.681-32.681V239.661 C356.764,221.686,342.057,206.98,324.083,206.98z"/> <path style="fill:#969696;" d="M324.083,239.661v206.979c0,17.974-14.706,32.681-32.681,32.681H40.849 c-17.974,0-32.681-14.706-32.681-32.681V239.661c0-17.974,14.706-32.681,32.681-32.681h250.553 C309.377,206.98,324.083,221.686,324.083,239.661z"/> <polygon style="fill:#B9B9B9;" points="291.402,283.235 291.402,403.065 258.721,403.065 226.04,343.15 258.721,283.235 "/> <rect x="51.745" y="283.233" style="fill:#DCDCDC;" width="206.979" height="119.83"/> <path style="fill:#969696;" d="M95.319,32.682V206.98c48.128,0,87.149-39.021,87.149-87.149S143.447,32.682,95.319,32.682z"/> <path style="fill:#B9B9B9;" d="M95.319,32.682c30.088,0,54.468,39.021,54.468,87.149s-24.38,87.149-54.468,87.149 c-48.128,0-87.149-39.021-87.149-87.149S47.191,32.682,95.319,32.682z"/> <path style="fill:#969696;" d="M269.615,32.682V206.98c48.128,0,87.149-39.021,87.149-87.149S317.743,32.682,269.615,32.682z"/> <path style="fill:#B9B9B9;" d="M269.615,32.682c30.088,0,54.468,39.021,54.468,87.149s-24.38,87.149-54.468,87.149 c-48.128,0-87.149-39.021-87.149-87.149S221.487,32.682,269.615,32.682z"/> <g> <path style="fill:#EEEEEE;" d="M269.617,152.51c-18.02,0-32.681-14.661-32.681-32.681s14.661-32.681,32.681-32.681 c18.02,0,32.681,14.661,32.681,32.681S287.637,152.51,269.617,152.51z"/> <path style="fill:#EEEEEE;" d="M95.319,152.51c-18.02,0-32.681-14.661-32.681-32.681s14.661-32.681,32.681-32.681 S128,101.808,128,119.829S113.339,152.51,95.319,152.51z"/> </g> <path d="M507.456,199.656c-2.783-1.379-6.107-1.06-8.578,0.822l-102.645,78.205c-1.466-2.184-3.959-3.621-6.787-3.621h-24.511 v-35.404c0-22.526-18.325-40.851-40.851-40.851h-1.155c25.328-17.152,42.006-46.154,42.006-78.979 c0-52.56-42.76-95.319-95.319-95.319c-38.83,0-72.306,23.342-87.149,56.729C167.626,47.851,134.149,24.51,95.319,24.51 C42.76,24.51,0,67.269,0,119.829c0,32.825,16.678,61.827,42.006,78.979h-1.155C18.325,198.807,0,217.133,0,239.658v206.979 c0,22.526,18.325,40.851,40.851,40.851h283.234c22.526,0,40.851-18.325,40.851-40.851v-35.404h24.511c4.512,0,8.17-3.657,8.17-8.17 V298.174l98.043-74.699v239.347l-68.58-52.251c-3.588-2.733-8.715-2.044-11.45,1.548c-2.734,3.588-2.043,8.715,1.547,11.45 l81.701,62.249c1.451,1.106,3.196,1.671,4.952,1.671c1.235,0,2.476-0.28,3.625-0.849c2.783-1.379,4.544-4.216,4.544-7.322V206.978 C512,203.872,510.238,201.035,507.456,199.656z M269.617,40.85c43.549,0,78.979,35.429,78.979,78.979s-35.429,78.979-78.979,78.979 s-78.979-35.429-78.979-78.979S226.068,40.85,269.617,40.85z M216.304,198.807h-67.671c14.734-9.977,26.537-23.969,33.836-40.388 C189.767,174.838,201.569,188.83,216.304,198.807z M16.34,119.829c0-43.549,35.429-78.979,78.979-78.979 s78.979,35.429,78.979,78.979s-35.429,78.979-78.979,78.979S16.34,163.378,16.34,119.829z M348.596,446.637 c0,13.515-10.995,24.511-24.511,24.511H40.851c-13.516,0-24.511-10.996-24.511-24.511V239.658c0-13.515,10.995-24.511,24.511-24.511 h283.234c13.516,0,24.511,10.996,24.511,24.511V446.637z M381.277,394.893h-16.34V291.403h16.34V394.893z"/> <path d="M51.745,258.722h130.723c4.512,0,8.17-3.657,8.17-8.17s-3.658-8.17-8.17-8.17H51.745c-4.512,0-8.17,3.657-8.17,8.17 S47.233,258.722,51.745,258.722z"/> <path d="M291.404,275.063H51.745c-4.512,0-8.17,3.657-8.17,8.17v119.83c0,4.513,3.658,8.17,8.17,8.17h32.681 c4.512,0,8.17-3.657,8.17-8.17c0-4.513-3.658-8.17-8.17-8.17H59.915V291.403h223.319v103.489H117.106c-4.512,0-8.17,3.657-8.17,8.17 c0,4.513,3.658,8.17,8.17,8.17h174.298c4.512,0,8.17-3.657,8.17-8.17v-119.83C299.574,278.72,295.916,275.063,291.404,275.063z"/> <path d="M240.168,136.177c4.359-1.169,6.944-5.651,5.775-10.009c-0.554-2.069-0.837-4.202-0.837-6.339 c0-13.515,10.995-24.511,24.511-24.511s24.511,10.996,24.511,24.511s-10.995,24.511-24.511,24.511c-2.134,0-4.268-0.282-6.341-0.838 c-4.357-1.17-8.839,1.418-10.007,5.777c-1.169,4.359,1.418,8.838,5.776,10.007c3.452,0.926,7.01,1.394,10.572,1.394 c22.526,0,40.851-18.325,40.851-40.851s-18.325-40.851-40.851-40.851c-22.526,0-40.851,18.325-40.851,40.851 c0,3.565,0.47,7.123,1.394,10.573C231.33,134.762,235.816,137.348,240.168,136.177z"/> <path d="M95.319,78.978c-22.525,0-40.851,18.325-40.851,40.851c0,3.565,0.47,7.123,1.394,10.573c1.17,4.36,5.655,6.946,10.008,5.775 c4.359-1.169,6.944-5.651,5.775-10.009c-0.554-2.069-0.837-4.202-0.837-6.339c0-13.515,10.995-24.511,24.511-24.511 s24.511,10.996,24.511,24.511s-10.995,24.511-24.511,24.511c-2.134,0-4.268-0.282-6.341-0.838c-4.359-1.17-8.838,1.418-10.007,5.777 s1.418,8.838,5.776,10.007c3.452,0.926,7.01,1.394,10.572,1.394c22.526,0,40.851-18.325,40.851-40.851S117.845,78.978,95.319,78.978 z"/> </g>
</svg>